<svg width="200" height="48" viewBox="0 0 200 48" fill="none" xmlns="http://www.w3.org/2000/svg">
  <!-- compost.fi horizontal lockup: breakout mark + domain -->

  <!-- Mark with breakout shoot -->
  <g transform="translate(0, -8)">
    <path d="M14.5 22 C13.5 19 14.5 17 16 15 C17 14 19 14.5 20 16 C21 17.5 19.5 18.5 18 18 C16.5 17.5 16.5 16.5 16 15.5 C15.5 17.5 15 20.5 15.5 22 Z" fill="#4dcf6a"/>
    <path d="M14.5 22 C13.5 19 15 17 16 15 L17 15.5 C15.5 17 15 20 15.5 22 Z" fill="#2ba84a"/>
    <rect x="5" y="24" width="22" height="4.5" rx="2" fill="#8a7d6d"/>
    <rect x="7" y="29.5" width="18" height="4.5" rx="2" fill="#5c5347"/>
    <rect x="9" y="35" width="14" height="4" rx="2" fill="#3d3630"/>
  </g>

  <!-- compost.fi text -->
  <text x="36" y="32" font-family="Outfit, -apple-system, sans-serif" font-size="22" font-weight="300" letter-spacing="0.02em" fill="#e8e4df">compost</text>
  <text x="131" y="32" font-family="Outfit, -apple-system, sans-serif" font-size="22" font-weight="300" letter-spacing="0.02em" fill="#4dcf6a">.fi</text>
</svg>
