<svg width="64" height="64" viewBox="0 0 64 64" fill="none" xmlns="http://www.w3.org/2000/svg">
  <!-- V26 Favicon: Simplified for small sizes - bolder shoot, 2 layers -->
  <path d="M28 30 C26 22 28 16 32 12 C35 9 40 11 42 16 C44 21 40 24 36 22 C32 20 32 16 32 14 C30 18 29 26 30 30 Z" fill="#5cb176"/>
  <path d="M28 30 C26 24 29 18 32 12 L35 14 C31 18 29 25 30 30 Z" fill="#3d8a5a"/>
  <rect x="8" y="34" width="48" height="12" rx="4" fill="#7a7065"/>
  <rect x="14" y="48" width="36" height="12" rx="4" fill="#4a4540"/>
</svg>
