<svg width="64" height="64" viewBox="0 0 64 64" fill="none" xmlns="http://www.w3.org/2000/svg">
  <!-- V18: Centered + tiny leaf -->

  <path d="M30 28
           C28 23 29 19 32 15
           C34 13 37 14 38 16
           C39 18 38 20 36 19
           C34 18 34 17 33 16
           C31 20 31 26 31 28 Z"
        fill="#5cb176"/>

  <path d="M30 28 C28 23 30 19 32 15 L34 16 C32 19 30 24 31 28 Z" fill="#3d8a5a"/>

  <rect x="10" y="32" width="44" height="9" rx="4" fill="#8a7d6d"/>
  <rect x="14" y="43" width="36" height="9" rx="4" fill="#5c5347"/>
  <rect x="18" y="54" width="28" height="8" rx="4" fill="#3d3630"/>
</svg>
