<svg width="64" height="64" viewBox="0 0 64 64" fill="none" xmlns="http://www.w3.org/2000/svg">
  <!-- V20: More upright leaf, centered -->

  <path d="M30 28
           C28 22 29 16 32 12
           C34 10 38 11 40 15
           C42 19 40 23 37 22
           C34 21 34 17 33 14
           C31 18 31 24 31 28 Z"
        fill="#5cb176"/>

  <path d="M30 28 C28 22 30 16 32 12 L34 13 C32 17 30 23 31 28 Z" fill="#3d8a5a"/>

  <rect x="10" y="32" width="44" height="9" rx="4" fill="#8a7d6d"/>
  <rect x="14" y="43" width="36" height="9" rx="4" fill="#5c5347"/>
  <rect x="18" y="54" width="28" height="8" rx="4" fill="#3d3630"/>
</svg>
