<svg width="64" height="64" viewBox="0 0 64 64" fill="none" xmlns="http://www.w3.org/2000/svg">
  <!-- V22: V17 with slightly richer green -->

  <path d="M29 28
           C27 22 28 18 32 14
           C34 12 39 13 41 16
           C43 19 40 22 37 21
           C34 20 34 18 33 16
           C31 20 31 26 31 28 Z"
        fill="#4fb36e"/>

  <path d="M29 28 C27 22 30 18 32 14 L34 15 C32 19 30 24 31 28 Z" fill="#358752"/>

  <rect x="10" y="32" width="44" height="9" rx="4" fill="#8a7d6d"/>
  <rect x="14" y="43" width="36" height="9" rx="4" fill="#5c5347"/>
  <rect x="18" y="54" width="28" height="8" rx="4" fill="#3d3630"/>
</svg>
