<svg width="64" height="64" viewBox="0 0 64 64" fill="none" xmlns="http://www.w3.org/2000/svg">
  <!-- V16: V11 with leaf more centered -->

  <path d="M29 28
           C27 22 28 18 32 14
           C35 11 41 12 43 17
           C45 21 42 24 38 23
           C35 22 34 19 33 16
           C31 20 31 26 31 28 Z"
        fill="#5cb176"/>

  <path d="M29 28 C27 22 30 18 32 14 L35 15 C32 19 30 24 31 28 Z" fill="#3d8a5a"/>

  <rect x="10" y="32" width="44" height="9" rx="4" fill="#8a7d6d"/>
  <rect x="14" y="43" width="36" height="9" rx="4" fill="#5c5347"/>
  <rect x="18" y="54" width="28" height="8" rx="4" fill="#3d3630"/>
</svg>
