<svg width="64" height="64" viewBox="0 0 64 64" fill="none" xmlns="http://www.w3.org/2000/svg">
  <!-- V23: V21 with warmer green -->

  <path d="M29 28
           C27 23 29 18 32 14
           C34 12 38 13 40 16
           C41 19 39 21 36 20
           C34 19 34 17 33 15
           C31 19 30 24 31 28 Z"
        fill="#5dba72"/>

  <path d="M29 28 C27 23 30 18 32 14 L34 15 C32 18 30 24 31 28 Z" fill="#3f9055"/>

  <rect x="10" y="32" width="44" height="9" rx="4" fill="#8a7d6d"/>
  <rect x="14" y="43" width="36" height="9" rx="4" fill="#5c5347"/>
  <rect x="18" y="54" width="28" height="8" rx="4" fill="#3d3630"/>
</svg>
